<svg version="1.1" id="Layer_1" xmlns="http://www.w3.org/2000/svg" xmlns:xlink="http://www.w3.org/1999/xlink" x="0px" y="0px"
	 width="100%" viewBox="0 0 136 137" enable-background="new 0 0 136 137" xml:space="preserve">
<path fill="#141414" opacity="1.000000" stroke="none" 
	d="
M73.000000,138.000000 
	C48.688511,138.000000 24.877018,138.000000 1.032764,138.000000 
	C1.032764,92.397049 1.032764,46.794067 1.032764,1.095543 
	C46.227909,1.095543 91.456085,1.095543 136.842133,1.095543 
	C136.842133,46.666233 136.842133,92.333061 136.842133,138.000000 
	C115.794495,138.000000 94.647247,138.000000 73.000000,138.000000 
M129.975174,115.176224 
	C129.928192,113.784439 129.881210,112.392654 129.976120,110.134659 
	C129.928009,108.090614 129.879898,106.046562 129.974152,103.123009 
	C129.927414,100.749672 129.880661,98.376328 129.975220,95.177238 
	C129.927841,93.785065 129.880463,92.392899 129.974182,90.134468 
	C129.927338,88.090607 129.880493,86.046753 129.975006,83.153999 
	C129.928131,81.436325 129.881256,79.718643 129.974136,77.121330 
	C129.927399,74.748589 129.880661,72.375839 129.973862,69.177071 
	C129.926773,67.784828 129.879684,66.392593 129.972351,64.093185 
	C129.925919,60.729443 129.879501,57.365700 129.972733,53.073608 
	C129.981613,39.741531 129.940231,26.409111 130.031693,13.077603 
	C130.057266,9.348969 129.097214,6.972159 124.774490,6.977257 
	C86.944435,7.021865 49.114292,7.017791 11.284225,6.981061 
	C7.428577,6.977317 5.943330,8.789781 5.976193,12.516552 
	C6.098131,26.344503 6.112213,40.173405 6.030658,54.914555 
	C6.076166,58.609852 6.121675,62.305145 6.029221,66.794014 
	C6.075205,67.863716 6.121189,68.933411 6.029913,70.882980 
	C6.075451,73.255653 6.120990,75.628326 6.027952,78.868080 
	C6.074843,80.913002 6.121734,82.957924 6.030046,85.851395 
	C6.075565,87.567917 6.121084,89.284447 6.027490,91.827042 
	C6.073834,93.219032 6.120178,94.611023 6.028024,96.882843 
	C6.074318,99.255875 6.120612,101.628899 6.028018,104.868668 
	C6.074268,106.912811 6.120518,108.956963 6.026942,111.826828 
	C6.073622,113.218407 6.120303,114.609993 6.025818,116.827103 
	C6.072583,118.218712 6.119347,119.610329 6.025690,121.883972 
	C5.945257,132.003098 5.945257,132.002686 16.106707,132.002487 
	C41.362507,132.001999 66.618309,132.001938 91.874107,132.001633 
	C102.674286,132.001495 113.475212,131.928024 124.274239,132.039383 
	C128.231155,132.080185 130.257370,130.575394 130.004486,126.476227 
	C129.912598,124.986946 129.888367,123.493492 129.975922,121.153374 
	C129.928253,119.436111 129.880585,117.718842 129.975174,115.176224 
z"/>
<path fill="#E2A92E" opacity="1.000000" stroke="none" 
	d="
M6.166806,54.001949 
	C6.112213,40.173405 6.098131,26.344503 5.976193,12.516552 
	C5.943330,8.789781 7.428577,6.977317 11.284225,6.981061 
	C49.114292,7.017791 86.944435,7.021865 124.774490,6.977257 
	C129.097214,6.972159 130.057266,9.348969 130.031693,13.077603 
	C129.940231,26.409111 129.981613,39.741531 129.497086,53.551003 
	C123.460579,54.935341 117.913689,55.735703 112.981743,51.504719 
	C113.533066,46.725266 112.849953,42.742264 107.782600,41.978027 
	C105.644333,41.655540 102.751999,42.493080 101.065483,43.864601 
	C98.123146,46.257370 98.596489,49.726112 99.822464,53.160805 
	C97.299774,55.692825 95.500343,59.891911 91.660103,54.886044 
	C91.196281,54.281448 89.196724,54.740517 87.931335,54.892727 
	C86.132156,55.109146 84.347290,55.796196 82.567650,55.757687 
	C77.128052,55.640003 71.694687,55.075489 66.257393,55.053272 
	C60.233612,55.028660 54.144138,56.015251 48.207695,55.386604 
	C44.700581,55.015209 39.928062,56.209621 37.807198,51.143196 
	C38.386024,46.722252 37.345039,43.413734 33.171707,42.010509 
	C29.847233,40.892700 26.579077,41.621166 25.001965,44.818935 
	C23.993217,46.864285 24.329704,49.573093 23.766193,52.169891 
	C19.315941,55.010822 15.320690,58.241909 10.053109,54.459431 
	C9.126142,53.793800 7.480536,54.128963 6.166806,54.001949 
z"/>
<path fill="#EAC054" opacity="1.000000" stroke="none" 
	d="
M129.833282,122.001945 
	C129.888367,123.493492 129.912598,124.986946 130.004486,126.476227 
	C130.257370,130.575394 128.231155,132.080185 124.274239,132.039383 
	C113.475212,131.928024 102.674286,132.001495 91.874107,132.001633 
	C66.618309,132.001938 41.362507,132.001999 16.106707,132.002487 
	C5.945257,132.002686 5.945257,132.003098 6.421342,121.534271 
	C8.386795,121.560432 9.939524,122.133568 11.529942,122.271210 
	C14.874194,122.560623 18.237068,122.680481 21.594725,122.746452 
	C22.897884,122.772057 24.210115,122.482300 25.513830,122.304108 
	C28.620611,121.879471 31.726467,121.053688 34.829712,121.067368 
	C46.786087,121.120071 58.787983,122.193192 70.684448,121.456795 
	C83.916817,120.637711 97.055054,123.422966 110.335663,121.284988 
	C116.633179,120.271179 123.321823,121.686905 129.833282,122.001945 
z"/>
<path fill="#E3AC31" opacity="1.000000" stroke="none" 
	d="
M6.098732,54.458252 
	C7.480536,54.128963 9.126142,53.793800 10.053109,54.459431 
	C15.320690,58.241909 19.315941,55.010822 24.063187,52.348396 
	C29.495747,57.617859 32.678589,57.419601 37.753532,51.525703 
	C39.928062,56.209621 44.700581,55.015209 48.207695,55.386604 
	C54.144138,56.015251 60.233612,55.028660 66.257393,55.053272 
	C71.694687,55.075489 77.128052,55.640003 82.567650,55.757687 
	C84.347290,55.796196 86.132156,55.109146 87.931335,54.892727 
	C89.196724,54.740517 91.196281,54.281448 91.660103,54.886044 
	C95.500343,59.891911 97.299774,55.692825 100.133659,53.328461 
	C105.834747,57.292549 108.259796,57.018948 112.970802,51.925621 
	C117.913689,55.735703 123.460579,54.935341 129.427246,54.015179 
	C129.879501,57.365700 129.925919,60.729443 129.544159,64.438141 
	C124.086624,64.353439 119.061775,63.859451 114.026917,63.509315 
	C106.640404,62.995655 99.386452,64.514450 91.758987,63.308411 
	C85.496918,62.318268 78.713196,63.499619 72.000336,62.659966 
	C66.672714,61.993587 61.021458,64.577713 55.467628,64.886566 
	C48.737568,65.260818 41.958984,64.749641 35.201092,64.640862 
	C30.673559,64.567978 26.010193,65.193611 21.651701,64.306892 
	C16.131094,63.183743 11.038024,62.664066 6.167183,66.000443 
	C6.121675,62.305145 6.076166,58.609852 6.098732,54.458252 
z"/>
<path fill="#E4B037" opacity="1.000000" stroke="none" 
	d="
M6.166529,78.000999 
	C6.120990,75.628326 6.075451,73.255653 6.546276,70.442467 
	C11.198199,70.252419 15.331200,70.653214 19.469824,70.723648 
	C29.687212,70.897522 39.908051,71.034874 50.125759,70.957336 
	C55.684959,70.915154 61.242519,70.128143 66.797432,70.166527 
	C76.417755,70.232986 86.036339,70.934990 95.654007,70.901207 
	C107.048218,70.861198 118.440681,70.324516 129.833923,70.003098 
	C129.880661,72.375839 129.927399,74.748589 129.482376,77.561104 
	C123.749733,77.667572 118.508858,77.334274 113.199944,76.607941 
	C111.950264,75.488754 110.820335,74.639900 109.557037,74.107498 
	C109.151588,73.936630 108.379219,74.574333 107.799538,74.887993 
	C93.203400,82.785599 78.394722,82.157692 63.451466,75.993652 
	C60.866508,74.927368 58.269489,73.718567 57.139771,78.014702 
	C50.916866,77.800652 45.062492,77.361710 39.210659,77.393219 
	C28.195177,77.452507 17.181156,77.783165 6.166529,78.000999 
z"/>
<path fill="#E8B945" opacity="1.000000" stroke="none" 
	d="
M6.166906,104.001930 
	C6.120612,101.628899 6.074318,99.255875 6.545592,96.442337 
	C12.842076,96.080704 18.621410,96.136879 24.399824,96.243050 
	C37.414387,96.482193 50.428970,96.964691 63.442642,96.936043 
	C75.508736,96.909477 87.572021,96.245277 99.639595,96.052956 
	C109.702080,95.892593 119.768982,96.009109 129.833923,96.002991 
	C129.880661,98.376328 129.927414,100.749672 129.447357,103.562317 
	C88.002670,104.001724 47.084785,104.001831 6.166906,104.001930 
z"/>
<path fill="#E9BC4A" opacity="1.000000" stroke="none" 
	d="
M6.097463,104.435303 
	C47.084785,104.001831 88.002670,104.001724 129.376160,104.002075 
	C129.879898,106.046562 129.928009,108.090614 129.523590,110.602791 
	C125.283379,111.047432 121.495705,111.006073 117.708008,111.003593 
	C102.474106,110.993591 87.239174,111.102638 72.006683,110.954529 
	C62.292973,110.860077 52.582237,110.131050 42.871368,110.155983 
	C30.635860,110.187386 18.401579,110.697517 6.166768,111.001114 
	C6.120518,108.956963 6.074268,106.912811 6.097463,104.435303 
z"/>
<path fill="#E6B53E" opacity="1.000000" stroke="none" 
	d="
M129.833664,84.002892 
	C129.880493,86.046753 129.927338,88.090607 129.449707,90.567459 
	C88.005676,91.000618 47.086140,91.000793 6.166603,91.000969 
	C6.121084,89.284447 6.075565,87.567917 6.552757,85.426605 
	C18.475908,84.985397 29.886509,85.256294 41.273289,84.853622 
	C49.133591,84.575676 56.960960,83.366325 65.150742,82.669197 
	C79.427116,87.430687 93.228958,87.338684 107.109116,81.985138 
	C108.809731,82.877800 110.269524,83.892952 111.758942,83.938446 
	C117.778885,84.122330 123.807961,84.007477 129.833664,84.002892 
z"/>
<path fill="#E4AD33" opacity="1.000000" stroke="none" 
	d="
M129.903885,69.590088 
	C118.440681,70.324516 107.048218,70.861198 95.654007,70.901207 
	C86.036339,70.934990 76.417755,70.232986 66.797432,70.166527 
	C61.242519,70.128143 55.684959,70.915154 50.125759,70.957336 
	C39.908051,71.034874 29.687212,70.897522 19.469824,70.723648 
	C15.331200,70.653214 11.198199,70.252419 6.614906,70.002533 
	C6.121189,68.933411 6.075205,67.863716 6.098202,66.397232 
	C11.038024,62.664066 16.131094,63.183743 21.651701,64.306892 
	C26.010193,65.193611 30.673559,64.567978 35.201092,64.640862 
	C41.958984,64.749641 48.737568,65.260818 55.467628,64.886566 
	C61.021458,64.577713 66.672714,61.993587 72.000336,62.659966 
	C78.713196,63.499619 85.496918,62.318268 91.758987,63.308411 
	C99.386452,64.514450 106.640404,62.995655 114.026917,63.509315 
	C119.061775,63.859451 124.086624,64.353439 129.474274,64.891724 
	C129.879684,66.392593 129.926773,67.784828 129.903885,69.590088 
z"/>
<path fill="#EABF51" opacity="1.000000" stroke="none" 
	d="
M129.904602,121.577660 
	C123.321823,121.686905 116.633179,120.271179 110.335663,121.284988 
	C97.055054,123.422966 83.916817,120.637711 70.684448,121.456795 
	C58.787983,122.193192 46.786087,121.120071 34.829712,121.067368 
	C31.726467,121.053688 28.620611,121.879471 25.513830,122.304108 
	C24.210115,122.482300 22.897884,122.772057 21.594725,122.746452 
	C18.237068,122.680481 14.874194,122.560623 11.529942,122.271210 
	C9.939524,122.133568 8.386795,121.560432 6.491552,121.093254 
	C6.119347,119.610329 6.072583,118.218712 6.553883,116.414001 
	C47.998932,116.001129 88.915916,116.001358 129.832901,116.001579 
	C129.880585,117.718842 129.928253,119.436111 129.904602,121.577660 
z"/>
<path fill="#E9BE4E" opacity="1.000000" stroke="none" 
	d="
M129.904037,115.588898 
	C88.915916,116.001358 47.998932,116.001129 6.624465,116.001236 
	C6.120303,114.609993 6.073622,113.218407 6.096855,111.413971 
	C18.401579,110.697517 30.635860,110.187386 42.871368,110.155983 
	C52.582237,110.131050 62.292973,110.860077 72.006683,110.954529 
	C87.239174,111.102638 102.474106,110.993591 117.708008,111.003593 
	C121.495705,111.006073 125.283379,111.047432 129.452637,111.035896 
	C129.881210,112.392654 129.928192,113.784439 129.904037,115.588898 
z"/>
<path fill="#E7B640" opacity="1.000000" stroke="none" 
	d="
M6.097046,91.414001 
	C47.086140,91.000793 88.005676,91.000618 129.379150,91.000580 
	C129.880463,92.392899 129.927841,93.785065 129.904572,95.590118 
	C119.768982,96.009109 109.702080,95.892593 99.639595,96.052956 
	C87.572021,96.245277 75.508736,96.909477 63.442642,96.936043 
	C50.428970,96.964691 37.414387,96.482193 24.399824,96.243050 
	C18.621410,96.136879 12.842076,96.080704 6.614841,96.002426 
	C6.120178,94.611023 6.073834,93.219032 6.097046,91.414001 
z"/>
<path fill="#E5B239" opacity="1.000000" stroke="none" 
	d="
M64.803047,82.573204 
	C56.960960,83.366325 49.133591,84.575676 41.273289,84.853622 
	C29.886509,85.256294 18.475908,84.985397 6.622046,85.002327 
	C6.121734,82.957924 6.074843,80.913002 6.097240,78.434540 
	C17.181156,77.783165 28.195177,77.452507 39.210659,77.393219 
	C45.062492,77.361710 50.916866,77.800652 57.342522,78.313370 
	C60.210979,79.924065 62.507015,81.248634 64.803047,82.573204 
z"/>
<path fill="#E5B239" opacity="1.000000" stroke="none" 
	d="
M129.904327,83.578445 
	C123.807961,84.007477 117.778885,84.122330 111.758942,83.938446 
	C110.269524,83.892952 108.809731,82.877800 107.328789,81.741745 
	C109.303497,79.783730 111.285736,78.392357 113.267975,77.000977 
	C118.508858,77.334274 123.749733,77.667572 129.412491,78.000923 
	C129.881256,79.718643 129.928131,81.436325 129.904327,83.578445 
z"/>
<path fill="#FEFDFA" opacity="1.000000" stroke="none" 
	d="
M37.807198,51.143196 
	C32.678589,57.419601 29.495747,57.617859 24.360096,52.162964 
	C24.329704,49.573093 23.993217,46.864285 25.001965,44.818935 
	C26.579077,41.621166 29.847233,40.892700 33.171707,42.010509 
	C37.345039,43.413734 38.386024,46.722252 37.807198,51.143196 
z"/>
<path fill="#FEFDFA" opacity="1.000000" stroke="none" 
	d="
M112.981743,51.504719 
	C108.259796,57.018948 105.834747,57.292549 100.412949,53.139668 
	C98.596489,49.726112 98.123146,46.257370 101.065483,43.864601 
	C102.751999,42.493080 105.644333,41.655540 107.782600,41.978027 
	C112.849953,42.742264 113.533066,46.725266 112.981743,51.504719 
z"/>
<path fill="#FEFDF9" opacity="1.000000" stroke="none" 
	d="
M113.199944,76.607941 
	C111.285736,78.392357 109.303497,79.783730 107.101578,81.418503 
	C93.228958,87.338684 79.427116,87.430687 65.150742,82.669197 
	C62.507015,81.248634 60.210979,79.924065 57.712196,78.300827 
	C58.269489,73.718567 60.866508,74.927368 63.451466,75.993652 
	C78.394722,82.157692 93.203400,82.785599 107.799538,74.887993 
	C108.379219,74.574333 109.151588,73.936630 109.557037,74.107498 
	C110.820335,74.639900 111.950264,75.488754 113.199944,76.607941 
z"/>
</svg>