<svg version="1.1" id="Layer_1" xmlns="http://www.w3.org/2000/svg" xmlns:xlink="http://www.w3.org/1999/xlink" x="0px" y="0px"
	 width="100%" viewBox="0 0 512 512" enable-background="new 0 0 512 512" xml:space="preserve">
<path fill="#000000" opacity="1.000000" stroke="none" 
	d="
M384.000000,513.000000 
	C299.979095,513.000000 215.958206,513.000000 131.351608,512.630493 
	C118.062599,508.693756 106.935127,502.797333 98.522995,492.145233 
	C91.066277,482.702972 86.152031,472.156555 86.129448,460.279785 
	C85.913033,346.465881 86.000000,232.651443 86.000000,118.837151 
	C86.000000,117.255562 86.000000,115.673981 86.000000,114.330467 
	C200.417953,114.330467 314.143219,114.330467 428.000000,114.330467 
	C428.000000,116.483269 428.000000,118.306099 428.000000,120.128929 
	C428.000000,231.277008 428.011841,342.425079 427.957703,453.573120 
	C427.955475,458.147766 427.776886,462.806763 426.921844,467.281494 
	C423.677338,484.261841 414.511414,497.250336 399.453705,505.799072 
	C394.527557,508.595825 389.163696,510.621643 384.000000,513.000000 
z"/>
<path fill="#FFFFFF" opacity="1.000000" stroke="none" 
	d="
M384.468658,513.000000 
	C389.163696,510.621643 394.527557,508.595825 399.453705,505.799072 
	C414.511414,497.250336 423.677338,484.261841 426.921844,467.281494 
	C427.776886,462.806763 427.955475,458.147766 427.957703,453.573120 
	C428.011841,342.425079 428.000000,231.277008 428.000000,120.128929 
	C428.000000,118.306099 428.000000,116.483269 428.000000,114.330467 
	C314.143219,114.330467 200.417953,114.330467 86.000000,114.330467 
	C86.000000,115.673981 86.000000,117.255562 86.000000,118.837151 
	C86.000000,232.651443 85.913033,346.465881 86.129448,460.279785 
	C86.152031,472.156555 91.066277,482.702972 98.522995,492.145233 
	C106.935127,502.797333 118.062599,508.693756 130.882950,512.630493 
	C87.689651,513.000000 44.379307,513.000000 1.034481,513.000000 
	C1.034481,342.446869 1.034481,171.893723 1.034481,1.000000 
	C61.687138,1.000000 122.374908,1.000000 183.461243,1.331369 
	C175.611679,9.904930 167.457230,18.245100 159.030975,26.300974 
	C157.473755,27.789734 154.822418,28.875778 152.669159,28.887604 
	C122.504791,29.053253 92.339226,29.000000 62.173958,29.000000 
	C60.559536,29.000000 58.945118,29.000000 57.230854,29.000000 
	C57.230854,48.526726 57.230854,67.597954 57.230854,86.771271 
	C190.529236,86.771271 323.596649,86.771271 456.767822,86.771271 
	C456.767822,67.470558 456.767822,48.399319 456.767822,29.000000 
	C454.917603,29.000000 453.282959,29.000000 451.648346,29.000000 
	C421.649719,29.000000 391.651062,29.022997 361.652649,28.943941 
	C359.816376,28.939100 357.393341,28.726706 356.240662,27.595030 
	C347.355011,18.871357 338.715698,9.896775 330.000000,1.000001 
	C390.967621,1.000000 451.935211,1.000000 512.951416,1.000000 
	C512.951416,171.543655 512.951416,342.087311 512.951416,513.000000 
	C470.313141,513.000000 427.625244,513.000000 384.468658,513.000000 
z"/>
<path fill="#000000" opacity="1.000000" stroke="none" 
	d="
M329.531342,1.000001 
	C338.715698,9.896775 347.355011,18.871357 356.240662,27.595030 
	C357.393341,28.726706 359.816376,28.939100 361.652649,28.943941 
	C391.651062,29.022997 421.649719,29.000000 451.648346,29.000000 
	C453.282959,29.000000 454.917603,29.000000 456.767822,29.000000 
	C456.767822,48.399319 456.767822,67.470558 456.767822,86.771271 
	C323.596649,86.771271 190.529236,86.771271 57.230854,86.771271 
	C57.230854,67.597954 57.230854,48.526726 57.230854,29.000000 
	C58.945118,29.000000 60.559536,29.000000 62.173958,29.000000 
	C92.339226,29.000000 122.504791,29.053253 152.669159,28.887604 
	C154.822418,28.875778 157.473755,27.789734 159.030975,26.300974 
	C167.457230,18.245100 175.611679,9.904930 183.929901,1.331369 
	C232.354233,1.000000 280.708466,1.000000 329.531342,1.000001 
z"/>
</svg>