<svg version="1.1" id="Layer_1" xmlns="http://www.w3.org/2000/svg" xmlns:xlink="http://www.w3.org/1999/xlink" x="0px" y="0px"
	 width="100%" viewBox="0 0 512 512" enable-background="new 0 0 512 512" xml:space="preserve">
<path fill="#000000" opacity="1.000000" stroke="none" 
	d="
M33.000000,1.000000 
	C192.953812,1.000000 352.907623,1.000000 512.930725,1.000000 
	C512.930725,171.571182 512.930725,342.142395 512.930725,513.000000 
	C353.308533,513.000000 193.616913,513.000000 33.117050,512.757507 
	C37.525806,509.517700 42.635189,506.311554 47.977947,503.558289 
	C74.477890,489.902313 101.049927,476.386353 127.576248,462.781433 
	C153.075729,449.703125 178.540451,436.557037 204.038574,423.476105 
	C230.404358,409.950073 256.800079,396.482391 283.167725,382.959930 
	C308.811890,369.808533 334.427216,356.600800 360.073334,343.453186 
	C386.453735,329.929169 412.848969,316.433960 439.251129,302.952515 
	C458.367462,293.191345 477.492615,283.447296 496.641174,273.749603 
	C503.598114,270.226318 506.959106,264.721375 507.056396,256.881927 
	C507.154755,248.961334 503.041962,243.808212 496.601501,240.318649 
	C487.394470,235.330124 477.977783,230.729126 468.662659,225.939346 
	C443.178528,212.835480 417.702271,199.716263 392.219849,186.609055 
	C366.017517,173.131561 339.820862,159.642914 313.603119,146.195404 
	C300.934723,139.697601 288.201141,133.326797 275.536621,126.821487 
	C249.181870,113.283989 222.863998,99.674698 196.509659,86.136398 
	C183.846634,79.631371 171.120026,73.250160 158.448730,66.761108 
	C131.334915,52.875954 104.242607,38.948780 77.132935,25.055519 
	C63.143875,17.886351 49.124882,10.775382 35.163963,3.552012 
	C34.247772,3.077975 33.712471,1.867774 33.000000,1.000000 
z"/>
<path fill="#096AD9" opacity="1.000000" stroke="none" 
	d="
M32.532059,1.000000 
	C33.712471,1.867774 34.247772,3.077975 35.163963,3.552012 
	C49.124882,10.775382 63.143875,17.886351 77.132935,25.055519 
	C104.242607,38.948780 131.334915,52.875954 158.448730,66.761108 
	C171.120026,73.250160 183.846634,79.631371 196.509659,86.136398 
	C222.863998,99.674698 249.181870,113.283989 275.536621,126.821487 
	C288.201141,133.326797 300.934723,139.697601 313.603119,146.195404 
	C339.820862,159.642914 366.017517,173.131561 392.219849,186.609055 
	C417.702271,199.716263 443.178528,212.835480 468.662659,225.939346 
	C477.977783,230.729126 487.394470,235.330124 496.601501,240.318649 
	C503.041962,243.808212 507.154755,248.961334 507.056396,256.881927 
	C506.959106,264.721375 503.598114,270.226318 496.641174,273.749603 
	C477.492615,283.447296 458.367462,293.191345 439.251129,302.952515 
	C412.848969,316.433960 386.453735,329.929169 360.073334,343.453186 
	C334.427216,356.600800 308.811890,369.808533 283.167725,382.959930 
	C256.800079,396.482391 230.404358,409.950073 204.038574,423.476105 
	C178.540451,436.557037 153.075729,449.703125 127.576248,462.781433 
	C101.049927,476.386353 74.477890,489.902313 47.977947,503.558289 
	C42.635189,506.311554 37.525806,509.517700 32.654411,512.757507 
	C27.311958,513.000000 21.623919,513.000000 15.806040,512.766602 
	C8.697177,507.852570 5.805598,501.239624 7.057957,493.044281 
	C8.139145,485.969086 9.550344,478.932648 11.105412,471.943573 
	C18.394377,439.184204 25.774683,406.445160 33.139767,373.702789 
	C38.431721,350.176727 43.695908,326.643951 49.162491,303.158417 
	C49.602287,301.269012 51.275379,298.513977 52.787369,298.209900 
	C64.474953,295.859467 76.259857,293.988678 88.022820,292.018311 
	C104.466476,289.263947 120.932327,286.639221 137.360413,283.795654 
	C151.676132,281.317719 165.939819,278.540192 180.250137,276.029755 
	C194.718994,273.491516 209.218918,271.130890 223.701447,268.670197 
	C238.678040,266.125549 253.655609,263.586029 268.621460,260.979462 
	C275.055084,259.858917 281.460266,258.575043 287.878387,257.365356 
	C283.080444,255.674881 278.340240,254.804352 273.587555,254.008240 
	C259.405701,251.632599 245.202103,249.382233 231.038254,246.904358 
	C212.708466,243.697678 194.427185,240.212311 176.091064,237.043564 
	C157.725250,233.869690 139.303986,231.017548 120.931915,227.878799 
	C100.167610,224.331360 79.411156,220.728821 58.700157,216.886810 
	C54.840790,216.170868 49.933678,217.050308 48.874596,210.533890 
	C47.021477,199.131805 44.319759,187.860703 41.777134,176.578995 
	C35.579727,149.080963 29.263081,121.609802 23.007299,94.124893 
	C17.731512,70.945610 12.120747,47.833782 7.398352,24.542042 
	C5.731121,16.318941 5.724934,7.471755 14.956875,2.370462 
	C15.161267,2.257521 14.993934,1.471856 15.000000,1.000000 
	C20.688040,1.000000 26.376081,1.000000 32.532059,1.000000 
z"/>
<path fill="#000000" opacity="1.000000" stroke="none" 
	d="
M14.525872,1.000000 
	C14.993934,1.471856 15.161267,2.257521 14.956875,2.370462 
	C5.724934,7.471755 5.731121,16.318941 7.398352,24.542042 
	C12.120747,47.833782 17.731512,70.945610 23.007299,94.124893 
	C29.263081,121.609802 35.579727,149.080963 41.777134,176.578995 
	C44.319759,187.860703 47.021477,199.131805 48.874596,210.533890 
	C49.933678,217.050308 54.840790,216.170868 58.700157,216.886810 
	C79.411156,220.728821 100.167610,224.331360 120.931915,227.878799 
	C139.303986,231.017548 157.725250,233.869690 176.091064,237.043564 
	C194.427185,240.212311 212.708466,243.697678 231.038254,246.904358 
	C245.202103,249.382233 259.405701,251.632599 273.587555,254.008240 
	C278.340240,254.804352 283.080444,255.674881 287.878387,257.365356 
	C281.460266,258.575043 275.055084,259.858917 268.621460,260.979462 
	C253.655609,263.586029 238.678040,266.125549 223.701447,268.670197 
	C209.218918,271.130890 194.718994,273.491516 180.250137,276.029755 
	C165.939819,278.540192 151.676132,281.317719 137.360413,283.795654 
	C120.932327,286.639221 104.466476,289.263947 88.022820,292.018311 
	C76.259857,293.988678 64.474953,295.859467 52.787369,298.209900 
	C51.275379,298.513977 49.602287,301.269012 49.162491,303.158417 
	C43.695908,326.643951 38.431721,350.176727 33.139767,373.702789 
	C25.774683,406.445160 18.394377,439.184204 11.105412,471.943573 
	C9.550344,478.932648 8.139145,485.969086 7.057957,493.044281 
	C5.805598,501.239624 8.697177,507.852570 15.338100,512.766602 
	C10.337211,513.000000 5.674421,513.000000 1.031284,513.000000 
	C1.031284,342.333344 1.031284,171.666656 1.031284,1.000000 
	C5.392294,1.000000 9.722019,1.000000 14.525872,1.000000 
z"/>
</svg>